<svg width="24" height="25" viewBox="0 0 24 25" fill="none" xmlns="http://www.w3.org/2000/svg">
<path fill-rule="evenodd" clip-rule="evenodd" d="M4.063 1.75H7.814C7.96655 1.75 8.11548 1.79652 8.24091 1.88336C8.36633 1.97019 8.4623 2.09321 8.516 2.236L9.972 6.106C10.02 6.23398 10.0321 6.37264 10.007 6.507L9.277 10.419C10.174 12.527 11.655 13.944 14.11 15.215L17.975 14.465C18.1123 14.4385 18.2544 14.451 18.385 14.501L22.267 15.981C22.4089 16.0351 22.5311 16.1309 22.6173 16.2559C22.7036 16.3809 22.7498 16.5291 22.75 16.681V20.265C22.75 21.891 21.318 23.21 19.642 22.845C16.589 22.181 10.932 20.492 6.97 16.53C3.174 12.735 1.902 7.493 1.475 4.66C1.23 3.042 2.527 1.75 4.063 1.75Z" fill="white"/>
</svg>
