<svg width="48" height="48" viewBox="0 0 48 48" fill="none" xmlns="http://www.w3.org/2000/svg">
<rect width="48" height="48" rx="24" fill="white"/>
<path d="M21.3333 28L28.2533 24L21.3333 20V28ZM36.7467 17.56C36.92 18.1866 37.04 19.0266 37.12 20.0933C37.2133 21.16 37.2533 22.08 37.2533 22.88L37.3333 24C37.3333 26.92 37.12 29.0666 36.7467 30.44C36.4133 31.64 35.64 32.4133 34.44 32.7466C33.8133 32.92 32.6667 33.04 30.9067 33.12C29.1733 33.2133 27.5867 33.2533 26.12 33.2533L24 33.3333C18.4133 33.3333 14.9333 33.12 13.56 32.7466C12.36 32.4133 11.5867 31.64 11.2533 30.44C11.08 29.8133 10.96 28.9733 10.88 27.9066C10.7867 26.84 10.7467 25.92 10.7467 25.12L10.6667 24C10.6667 21.08 10.88 18.9333 11.2533 17.56C11.5867 16.36 12.36 15.5866 13.56 15.2533C14.1867 15.08 15.3333 14.96 17.0933 14.88C18.8267 14.7866 20.4133 14.7466 21.88 14.7466L24 14.6666C29.5867 14.6666 33.0667 14.88 34.44 15.2533C35.64 15.5866 36.4133 16.36 36.7467 17.56Z" fill="#183657"/>
</svg>
