<svg width="48" height="48" viewBox="0 0 48 48" fill="none" xmlns="http://www.w3.org/2000/svg">
<rect width="48" height="48" rx="24" fill="#236BA7"/>
<path d="M24 19.6667C22.8507 19.6667 21.7485 20.1232 20.9358 20.9359C20.1232 21.7485 19.6666 22.8507 19.6666 24C19.6666 25.1493 20.1232 26.2515 20.9358 27.0641C21.7485 27.8768 22.8507 28.3333 24 28.3333C25.1492 28.3333 26.2514 27.8768 27.0641 27.0641C27.8767 26.2515 28.3333 25.1493 28.3333 24C28.3333 22.8507 27.8767 21.7485 27.0641 20.9359C26.2514 20.1232 25.1492 19.6667 24 19.6667Z" fill="white"/>
<path fill-rule="evenodd" clip-rule="evenodd" d="M17.0267 12.1093C21.6614 11.5959 26.3387 11.5959 30.9734 12.1093C33.5054 12.392 35.5467 14.3853 35.844 16.9267C36.3933 21.6262 36.3933 26.3738 35.844 31.0733C35.5467 33.6147 33.5054 35.608 30.9747 35.892C26.3395 36.4055 21.6619 36.4055 17.0267 35.892C14.4947 35.608 12.4534 33.6147 12.156 31.0747C11.6067 26.3747 11.6067 21.6267 12.156 16.9267C12.4534 14.3853 14.4947 12.392 17.0267 12.1093ZM30.6667 16C30.3131 16 29.9739 16.1405 29.7239 16.3905C29.4738 16.6406 29.3334 16.9797 29.3334 17.3333C29.3334 17.687 29.4738 18.0261 29.7239 18.2762C29.9739 18.5262 30.3131 18.6667 30.6667 18.6667C31.0203 18.6667 31.3595 18.5262 31.6095 18.2762C31.8596 18.0261 32 17.687 32 17.3333C32 16.9797 31.8596 16.6406 31.6095 16.3905C31.3595 16.1405 31.0203 16 30.6667 16ZM17.6667 24C17.6667 22.3203 18.334 20.7094 19.5217 19.5217C20.7094 18.3339 22.3203 17.6667 24 17.6667C25.6797 17.6667 27.2906 18.3339 28.4784 19.5217C29.6661 20.7094 30.3334 22.3203 30.3334 24C30.3334 25.6797 29.6661 27.2906 28.4784 28.4784C27.2906 29.6661 25.6797 30.3333 24 30.3333C22.3203 30.3333 20.7094 29.6661 19.5217 28.4784C18.334 27.2906 17.6667 25.6797 17.6667 24Z" fill="white"/>
</svg>
