<svg width="48" height="48" viewBox="0 0 48 48" fill="none" xmlns="http://www.w3.org/2000/svg">
<rect width="48" height="48" rx="24" fill="#236BA7"/>
<path fill-rule="evenodd" clip-rule="evenodd" d="M32 12C33.0609 12 34.0783 12.4214 34.8284 13.1716C35.5786 13.9217 36 14.9391 36 16V32C36 33.0609 35.5786 34.0783 34.8284 34.8284C34.0783 35.5786 33.0609 36 32 36H16C14.9391 36 13.9217 35.5786 13.1716 34.8284C12.4214 34.0783 12 33.0609 12 32V16C12 14.9391 12.4214 13.9217 13.1716 13.1716C13.9217 12.4214 14.9391 12 16 12H32ZM18.6667 21.3333C18.313 21.3333 17.9739 21.4738 17.7239 21.7239C17.4738 21.9739 17.3333 22.313 17.3333 22.6667V29.3333C17.3333 29.687 17.4738 30.0261 17.7239 30.2761C17.9739 30.5262 18.313 30.6667 18.6667 30.6667C19.0203 30.6667 19.3594 30.5262 19.6095 30.2761C19.8595 30.0261 20 29.687 20 29.3333V22.6667C20 22.313 19.8595 21.9739 19.6095 21.7239C19.3594 21.4738 19.0203 21.3333 18.6667 21.3333ZM22.6667 20C22.313 20 21.9739 20.1405 21.7239 20.3905C21.4738 20.6406 21.3333 20.9797 21.3333 21.3333V29.3333C21.3333 29.687 21.4738 30.0261 21.7239 30.2761C21.9739 30.5262 22.313 30.6667 22.6667 30.6667C23.0203 30.6667 23.3594 30.5262 23.6095 30.2761C23.8595 30.0261 24 29.687 24 29.3333V24.4533C24.4067 23.9947 25.0933 23.456 25.8573 23.1293C26.3013 22.94 26.9693 22.8627 27.4333 23.0093C27.5873 23.0484 27.7244 23.1363 27.824 23.26C27.8933 23.3533 28 23.5613 28 24V29.3333C28 29.687 28.1405 30.0261 28.3905 30.2761C28.6406 30.5262 28.9797 30.6667 29.3333 30.6667C29.687 30.6667 30.0261 30.5262 30.2761 30.2761C30.5262 30.0261 30.6667 29.687 30.6667 29.3333V24C30.6667 23.1067 30.44 22.312 29.968 21.6747C29.5337 21.0967 28.9258 20.673 28.2333 20.4653C27.0307 20.088 25.6987 20.2973 24.8093 20.6787C24.5246 20.8011 24.2473 20.94 23.9787 21.0947C23.9228 20.7875 23.7608 20.5096 23.5211 20.3096C23.2813 20.1095 22.9789 20 22.6667 20ZM18.6667 17.3333C18.313 17.3333 17.9739 17.4738 17.7239 17.7239C17.4738 17.9739 17.3333 18.313 17.3333 18.6667C17.3333 19.0203 17.4738 19.3594 17.7239 19.6095C17.9739 19.8595 18.313 20 18.6667 20C19.0203 20 19.3594 19.8595 19.6095 19.6095C19.8595 19.3594 20 19.0203 20 18.6667C20 18.313 19.8595 17.9739 19.6095 17.7239C19.3594 17.4738 19.0203 17.3333 18.6667 17.3333Z" fill="white"/>
</svg>
