<svg width="48" height="48" viewBox="0 0 48 48" fill="none" xmlns="http://www.w3.org/2000/svg">
<rect width="48" height="48" rx="24" fill="#236BA7"/>
<path d="M21.3333 28L28.2533 24L21.3333 20V28ZM36.7466 17.56C36.92 18.1867 37.04 19.0267 37.12 20.0933C37.2133 21.16 37.2533 22.08 37.2533 22.88L37.3333 24C37.3333 26.92 37.12 29.0667 36.7466 30.44C36.4133 31.64 35.64 32.4133 34.44 32.7467C33.8133 32.92 32.6666 33.04 30.9066 33.12C29.1733 33.2133 27.5866 33.2533 26.12 33.2533L24 33.3333C18.4133 33.3333 14.9333 33.12 13.56 32.7467C12.36 32.4133 11.5866 31.64 11.2533 30.44C11.08 29.8133 10.96 28.9733 10.88 27.9067C10.7866 26.84 10.7466 25.92 10.7466 25.12L10.6666 24C10.6666 21.08 10.88 18.9333 11.2533 17.56C11.5866 16.36 12.36 15.5867 13.56 15.2533C14.1866 15.08 15.3333 14.96 17.0933 14.88C18.8266 14.7867 20.4133 14.7467 21.88 14.7467L24 14.6667C29.5866 14.6667 33.0666 14.88 34.44 15.2533C35.64 15.5867 36.4133 16.36 36.7466 17.56Z" fill="white"/>
</svg>
